<?xml version="1.0" encoding="UTF-8"?>
<svg id="Layer_2" data-name="Layer 2" xmlns="http://www.w3.org/2000/svg" viewBox="0 0 91.88 112.8">
  <defs>
    <style>
      .cls-1 {
        opacity: .5;
      }

      .cls-1, .cls-2 {
        fill: #23c3c1;
        stroke: #008280;
        stroke-miterlimit: 10;
        stroke-width: 3.84px;
      }

      .cls-3 {
        fill: #2b3d13;
      }

      .cls-4 {
        fill: #9ac65d;
        stroke: #2b3d13;
        stroke-linecap: round;
        stroke-linejoin: round;
        stroke-width: 3.8px;
      }
    </style>
  </defs>
  <g id="head">
    <g>
      <path class="cls-2" d="M89.96,44.56v59.46c0,3.79-2.3,6.85-5.14,6.85H7.06c-2.84,0-5.14-3.06-5.14-6.85v-59.46c0-1.42.07-2.82.21-4.21C4.32,18.77,23.1,1.92,45.94,1.92c22.86,0,41.65,16.89,43.81,38.49.13,1.36.2,2.75.2,4.15Z"/>
      <path class="cls-1" d="M79.12,89.24c1.56,6.46,1.15,12.17-1.07,12.17H17.3c-2.22,0-2.63-5.71-1.07-12.17l4.89-20.23c-4.96-5.78-7.94-13.21-7.94-21.32,0-18.46,15.45-33.42,34.49-33.41,19.05,0,34.5,14.96,34.5,33.42,0,8.11-2.98,15.53-7.94,21.31l4.89,20.23Z"/>
      <path class="cls-4" d="M77.38,86.73c1.56,6.46,1.15,12.17-1.07,12.17H15.57c-2.22,0-2.63-5.71-1.07-12.17l4.82-19.95c.04-.17,0-.36-.11-.48-4.85-5.75-7.76-13.1-7.76-21.11,0-18.46,15.45-33.42,34.49-33.41,19.05,0,34.5,14.96,34.5,33.42,0,7.97-2.88,15.28-7.68,21.02-.16.19-.22.45-.16.7l4.79,19.82Z"/>
      <g>
        <ellipse class="cls-3" cx="59.77" cy="47.03" rx="4.9" ry="8.16"/>
        <path class="cls-3" d="M51.88,54.98c-.24,9.83-13.31,9.64-13.09-.24.03-.95,1.43-1.08,1.64-.16.3,1.28.87,2.5,1.72,3.43,3.15,3.48,7.3.36,8.1-3.45.33-1.06,1.79-.66,1.64.41h0Z"/>
        <ellipse class="cls-3" cx="31.39" cy="47.03" rx="4.9" ry="8.16"/>
      </g>
    </g>
  </g>
</svg>